<svg width="36" height="36" viewBox="0 0 36 36" fill="none" xmlns="http://www.w3.org/2000/svg">
<path d="M17.9985 11.0656C16.1589 11.0656 14.3948 11.7963 13.094 13.0971C11.7932 14.3978 11.0625 16.162 11.0625 18.0016C11.0625 19.8411 11.7932 21.6053 13.094 22.9061C14.3948 24.2068 16.1589 24.9376 17.9985 24.9376C19.838 24.9376 21.6022 24.2068 22.903 22.9061C24.2037 21.6053 24.9345 19.8411 24.9345 18.0016C24.9345 16.162 24.2037 14.3978 22.903 13.0971C21.6022 11.7963 19.838 11.0656 17.9985 11.0656ZM17.9985 22.5061C16.8034 22.5061 15.6573 22.0313 14.8123 21.1863C13.9672 20.3413 13.4925 19.1951 13.4925 18.0001C13.4925 16.805 13.9672 15.6589 14.8123 14.8138C15.6573 13.9688 16.8034 13.4941 17.9985 13.4941C19.1936 13.4941 20.3397 13.9688 21.1847 14.8138C22.0298 15.6589 22.5045 16.805 22.5045 18.0001C22.5045 19.1951 22.0298 20.3413 21.1847 21.1863C20.3397 22.0313 19.1936 22.5061 17.9985 22.5061Z" fill="#2D2D2D"/>
<path d="M25.209 12.4276C26.102 12.4276 26.826 11.7036 26.826 10.8106C26.826 9.91752 26.102 9.19357 25.209 9.19357C24.3159 9.19357 23.592 9.91752 23.592 10.8106C23.592 11.7036 24.3159 12.4276 25.209 12.4276Z" fill="#2D2D2D"/>
<path d="M30.7995 9.16657C30.4522 8.26984 29.9216 7.45549 29.2415 6.77566C28.5614 6.09582 27.7469 5.56548 26.85 5.21857C25.8005 4.8246 24.6918 4.61158 23.571 4.58857C22.1265 4.52557 21.669 4.50757 18.006 4.50757C14.343 4.50757 13.8735 4.50757 12.441 4.58857C11.3211 4.6104 10.2131 4.82347 9.16499 5.21857C8.2679 5.56507 7.45314 6.09527 6.77299 6.77516C6.09285 7.45505 5.56233 8.2696 5.21549 9.16657C4.82145 10.216 4.60891 11.3248 4.58699 12.4456C4.52249 13.8886 4.50299 14.3461 4.50299 18.0106C4.50299 21.6736 4.50299 22.1401 4.58699 23.5756C4.60949 24.6976 4.82099 25.8046 5.21549 26.8561C5.56331 27.7527 6.09433 28.5669 6.77464 29.2467C7.45495 29.9265 8.26959 30.4569 9.16649 30.8041C10.2126 31.2139 11.321 31.4421 12.444 31.4791C13.8885 31.5421 14.346 31.5616 18.009 31.5616C21.672 31.5616 22.1415 31.5616 23.574 31.4791C24.6946 31.4563 25.8033 31.2438 26.853 30.8506C27.7496 30.5029 28.5639 29.972 29.2439 29.292C29.924 28.612 30.4548 27.7977 30.8025 26.9011C31.197 25.8511 31.4085 24.7441 31.431 23.6221C31.4955 22.1791 31.515 21.7216 31.515 18.0571C31.515 14.3926 31.515 13.9276 31.431 12.4921C31.4135 11.3555 31.1999 10.2304 30.7995 9.16657ZM28.9725 23.4646C28.9628 24.329 28.805 25.1854 28.506 25.9966C28.2807 26.5799 27.9359 27.1096 27.4936 27.5516C27.0513 27.9936 26.5214 28.3381 25.938 28.5631C25.1358 28.8607 24.2885 29.0185 23.433 29.0296C22.008 29.0956 21.606 29.1121 17.952 29.1121C14.295 29.1121 13.9215 29.1121 12.4695 29.0296C11.6144 29.0191 10.7675 28.8613 9.96599 28.5631C9.38052 28.3395 8.84849 27.9956 8.40433 27.5535C7.96016 27.1114 7.61374 26.581 7.38749 25.9966C7.09266 25.1941 6.93496 24.3478 6.92099 23.4931C6.85649 22.0681 6.84149 21.6661 6.84149 18.0121C6.84149 14.3566 6.84149 13.9831 6.92099 12.5296C6.93069 11.6656 7.08847 10.8097 7.38749 9.99907C7.84499 8.81557 8.78249 7.88407 9.96599 7.43107C10.7679 7.13428 11.6145 6.97651 12.4695 6.96457C13.896 6.90007 14.2965 6.88207 17.952 6.88207C21.6075 6.88207 21.9825 6.88207 23.433 6.96457C24.2886 6.97486 25.136 7.13268 25.938 7.43107C26.5214 7.65648 27.0512 8.00137 27.4934 8.44361C27.9357 8.88586 28.2806 9.41568 28.506 9.99907C28.8008 10.8015 28.9585 11.6478 28.9725 12.5026C29.037 13.9291 29.0535 14.3296 29.0535 17.9851C29.0535 21.6391 29.0535 22.0321 28.989 23.4661H28.9725V23.4646Z" fill="#2D2D2D"/>
</svg>
